<?xml version="1.0" encoding="UTF-8"?> 
<!DOCTYPE svg PUBLIC "-//W3C//DTD SVG 1.1//EN" "http://www.w3.org/Graphics/SVG/1.1/DTD/svg11.dtd"> 
<svg  xmlns="http://www.w3.org/2000/svg" xmlns:xlink="http://www.w3.org/1999/xlink" viewBox="0, 0, 375.000000, 281.000000" version="1.1" width="375.000000" height="281.000000" > 
<rect width="375.000000" height="281.000000" fill="rgb(239,242,246)" fill-opacity="0.000000" /><path transform="translate(0.000000 -265.375000)" fill="rgb(0,0,0)" fill-opacity="1.000000" stroke="rgb(255,255,255)" stroke-opacity="1.000000" stroke-width="9.000000" stroke-dasharray="(null)" stroke-linecap="round" d="M126.6 270.5H248.4C269.9 270.5 280.6 270.5 292.2 274.2V274.2C304.8 278.8 314.7 288.7 319.3 301.3C323.0 312.9 323.0 323.6 323.0 345.1V466.9C323.0 488.4 323.0 499.1 319.3 510.7V510.7C314.7 523.3 304.8 533.2 292.2 537.8C280.6 541.5 269.9 541.5 248.4 541.5H126.6C105.1 541.5 94.4 541.5 82.8 537.8V537.8C70.2 533.2 60.3 523.3 55.7 510.7C52.0 499.1 52.0 488.4 52.0 466.9V345.1C52.0 323.6 52.0 312.9 55.7 301.3V301.3C60.3 288.7 70.2 278.8 82.8 274.2C94.4 270.5 105.1 270.5 126.6 270.5H126.6" /> 

<path transform="translate(80.333333 41.499997) rotate(0.000000 112.333333 33.666667)" fill="rgb(255,255,255)" fill-opacity="1.000000" d="M16.2 47.9Q16.4 46.4 17.2 44.9Q18.1 43.3 19.1 42.4Q24.8 46.0 30.1 46.0Q32.8 46.0 34.3 44.8Q35.8 43.5 35.8 41.7Q35.7 38.5 31.6 36.7L25.2 34.0Q21.4 32.4 19.5 29.9Q17.6 27.5 17.6 24.2Q17.6 21.8 18.5 19.8Q19.5 17.8 21.2 16.3Q23.0 14.9 25.4 14.1Q27.9 13.2 30.8 13.2Q36.8 13.2 42.6 16.2Q42.4 19.6 40.0 21.8Q34.5 19.2 30.4 19.2Q27.8 19.2 26.4 20.4Q25.0 21.6 25.0 23.3Q25.0 25.8 28.9 27.5L35.3 30.2Q39.2 31.8 41.4 34.5Q43.5 37.2 43.5 40.6Q43.5 43.1 42.6 45.2Q41.8 47.3 40.0 48.8Q38.2 50.3 35.6 51.1Q32.9 52.0 29.3 52.0Q22.4 52.0 16.2 47.9ZM71.3 33.0V44.9Q71.3 48.4 72.5 50.1Q70.7 51.6 68.3 51.6Q65.9 51.6 65.1 50.5Q64.2 49.5 64.2 47.2V34.5Q64.2 32.0 63.6 31.1Q63.0 30.1 61.4 30.1Q58.5 30.1 56.0 32.7V51.2Q55.2 51.4 54.3 51.4Q53.5 51.5 52.5 51.5Q51.7 51.5 50.8 51.4Q49.9 51.4 49.1 51.2V11.5L49.4 11.1H52.2Q54.3 11.1 55.1 12.1Q56.0 13.1 56.0 15.5V27.0Q59.8 23.7 63.7 23.7Q67.6 23.7 69.5 26.2Q71.3 28.8 71.3 33.0ZM100.7 47.9Q100.4 48.9 99.7 50.0Q99.0 51.1 98.3 51.7Q94.7 51.2 93.1 48.5Q89.5 52.0 85.3 52.0Q83.2 52.0 81.6 51.3Q80.0 50.6 78.9 49.5Q77.9 48.3 77.4 46.9Q76.8 45.4 76.8 43.8Q76.8 41.5 77.6 39.8Q78.4 38.1 79.9 36.9Q81.3 35.8 83.2 35.2Q85.2 34.6 87.5 34.6Q90.4 34.6 92.0 34.8V33.3Q92.0 29.2 88.0 29.2Q85.3 29.2 79.7 31.1Q78.2 29.4 77.9 26.0Q83.7 23.5 89.8 23.5Q93.9 23.5 96.5 25.8Q99.1 28.1 99.1 32.7V43.9Q99.1 46.8 100.7 47.9ZM86.9 46.6Q89.6 46.6 92.0 44.2V39.4Q91.2 39.4 90.4 39.3Q89.5 39.3 88.8 39.3Q86.4 39.3 85.1 40.2Q83.9 41.1 83.9 43.2Q83.9 44.8 84.7 45.7Q85.5 46.6 86.9 46.6ZM104.8 27.5Q105.1 26.5 105.7 25.4Q106.4 24.3 107.1 23.8Q111.6 24.3 113.2 28.7Q115.3 23.8 120.1 23.8Q121.9 23.8 123.4 24.2Q123.4 28.0 121.6 30.8Q120.8 30.6 119.1 30.5Q116.0 30.5 114.0 33.8V51.2Q112.4 51.5 110.5 51.5Q108.6 51.5 106.9 51.2V33.1Q106.9 29.2 104.8 27.5ZM139.9 51.7Q137.0 51.7 134.3 50.2V58.6Q134.3 61.0 133.4 62.0Q132.5 63.0 130.4 63.0H127.6L127.3 62.6V24.2L127.6 23.9H129.6Q132.5 23.9 133.7 26.5Q136.8 23.4 141.2 23.4Q145.7 23.4 148.1 27.2Q150.6 31.0 150.6 37.6Q150.6 40.9 149.7 43.5Q148.9 46.1 147.4 47.9Q146.0 49.7 144.1 50.7Q142.1 51.7 139.9 51.7ZM139.2 29.2Q136.3 29.2 134.3 32.0V44.7Q136.7 46.3 138.6 46.3Q140.9 46.3 142.1 43.9Q143.3 41.6 143.3 37.4Q143.3 33.2 142.2 31.2Q141.0 29.2 139.2 29.2ZM176.9 40.0H161.9Q162.1 43.0 163.3 44.7Q164.5 46.4 167.6 46.4Q170.7 46.4 174.8 44.6Q176.4 46.2 176.8 48.9Q172.5 52.0 166.4 52.0Q160.6 52.0 157.6 48.4Q154.6 44.8 154.6 37.8Q154.6 34.5 155.4 31.9Q156.2 29.3 157.6 27.4Q159.1 25.5 161.2 24.5Q163.4 23.4 166.1 23.4Q168.9 23.4 171.0 24.3Q173.1 25.1 174.6 26.7Q176.1 28.2 176.8 30.3Q177.5 32.5 177.5 35.0Q177.5 36.3 177.4 37.6Q177.2 38.8 176.9 40.0ZM166.4 28.6Q162.2 28.6 161.8 35.0H170.9V34.3Q170.9 31.7 169.8 30.1Q168.7 28.6 166.4 28.6ZM206.0 33.0V44.9Q206.0 48.4 207.1 50.1Q205.4 51.6 202.9 51.6Q200.6 51.6 199.7 50.5Q198.8 49.5 198.8 47.2V34.5Q198.8 32.0 198.2 31.1Q197.6 30.1 196.0 30.1Q193.1 30.1 190.6 32.7V51.2Q189.8 51.4 188.9 51.4Q188.0 51.5 187.1 51.5Q186.1 51.5 185.2 51.4Q184.3 51.4 183.5 51.2V24.2L183.9 23.9H186.6Q189.6 23.9 190.4 27.1Q194.4 23.7 198.3 23.7Q202.2 23.7 204.1 26.2Q206.0 28.8 206.0 33.0Z" /> 

<path transform="translate(0.000000 -265.375000)" fill="rgb(254,255,255)" fill-opacity="1.000000" stroke="rgb(254,255,255)" stroke-opacity="0.000000" stroke-width="3.000000" stroke-dasharray="(null)" stroke-linecap="round" d="M100.7 391.3L274.3 391.3L274.3 420.7L100.7 420.7Z" /> 

<path transform="translate(-18.333344 -223.708328)" fill="rgb(254,255,255)" fill-opacity="1.000000" stroke="rgb(254,255,255)" stroke-opacity="0.000000" stroke-width="3.000000" stroke-dasharray="(null)" stroke-linecap="round" d="M100.7 391.3L274.3 391.3L274.3 420.7L100.7 420.7Z" /> 

<path transform="translate(6.250000 -180.708328)" fill="rgb(254,255,255)" fill-opacity="1.000000" stroke="rgb(254,255,255)" stroke-opacity="0.000000" stroke-width="3.000000" stroke-dasharray="(null)" stroke-linecap="round" d="M100.7 391.3L274.3 391.3L274.3 420.7L100.7 420.7Z" /> 
</svg>